# xmcd CD database file
#
# Track frame offsets:
#	150
#	15251
#	33372
#	47408
#	65311
#	82151
#	103616
#	117800
#	136156
#	152160
#	168531
#	181898
#	196359
#	212748
#	225442
#	239165
#
# Disc length: 3390 seconds
#
# Revision: 2
# Processed by: cddbd v1.5.2PL0 Copyright (c) Steve Scherf et al.
# Submitted via: CDex 1.51
#
DISCID=cd0d3c10
DTITLE=Lemmy Constantine - Meeting Sinatra and Django
DYEAR=2007
DGENRE=Jazz
TTITLE0=The lady is a tramp
TTITLE1=Nuages
TTITLE2=My way
TTITLE3=It was a very good year
TTITLE4=I get a kick out of you
TTITLE5=Misty
TTITLE6=All the things you are
TTITLE7=September song
TTITLE8=Night and Day
TTITLE9=Moon river
TTITLE10=Fly me to the moon
TTITLE11=I've got you under my skin
TTITLE12=After you've gone
TTITLE13=Corcovado
TTITLE14=For once in my life
TTITLE15=My funny Valentine
EXTD=YEAR: 2007
EXTT0=
EXTT1=
EXTT2=
EXTT3=
EXTT4=
EXTT5=
EXTT6=
EXTT7=
EXTT8=
EXTT9=
EXTT10=
EXTT11=
EXTT12=
EXTT13=
EXTT14=
EXTT15=
PLAYORDER=
